<?xml version="1.0" encoding="utf-8"?><svg viewBox="0 0 25 24" xmlns="http://www.w3.org/2000/svg" xmlns:xlink="http://www.w3.org/1999/xlink"><style>:root>svg{display:none}:root>svg:target{display:block}</style><svg fill="none" viewBox="0 0 25 24" id="mail" xmlns="http://www.w3.org/2000/svg"><path d="M4.113 4h16c1.1 0 2 .9 2 2v12c0 1.1-.9 2-2 2h-16c-1.1 0-2-.9-2-2V6c0-1.1.9-2 2-2z" stroke="#152F35" stroke-width="1.4" stroke-linecap="round" stroke-linejoin="round"/><path d="M22.113 6l-10 7-10-7" stroke="#152F35" stroke-width="1.4" stroke-linecap="round" stroke-linejoin="round"/></svg><svg fill="none" viewBox="0 0 22 22" id="tel" xmlns="http://www.w3.org/2000/svg"><path d="M21.113 15.92v3a1.998 1.998 0 01-2.18 2 19.791 19.791 0 01-8.63-3.07 19.5 19.5 0 01-6-6 19.79 19.79 0 01-3.07-8.67A2 2 0 013.223 1h3a2 2 0 012 1.72c.127.96.362 1.903.7 2.81a2 2 0 01-.45 2.11l-1.27 1.27a16 16 0 006 6l1.27-1.27a2 2 0 012.11-.45c.908.339 1.85.573 2.81.7a2 2 0 011.72 2.03z" stroke="#152F35" stroke-width="1.4" stroke-linecap="round" stroke-linejoin="round"/></svg></svg>