<svg width="1307" height="210" viewBox="0 0 1307 210" fill="none" xmlns="http://www.w3.org/2000/svg">
<mask id="path-1-inside-1_2_1299" fill="white">
<path fill-rule="evenodd" clip-rule="evenodd" d="M1159 19.5C1159 8.73045 1167.73 0 1178.5 0C1189.27 0 1198 8.73045 1198 19.5V33.8772C1199.49 34.0345 1200.95 34.2 1202.39 34.3739C1221.25 36.6465 1236.48 40.3435 1247.59 45.5301C1258.69 50.7149 1265.75 57.4247 1268.11 65.7577C1270.48 74.0907 1268 83.5084 1261.28 93.7553C1254.56 104.006 1243.54 115.155 1228.7 126.999C1226.55 128.711 1224.32 130.437 1222.02 132.179C1224.19 132.571 1226.31 132.978 1228.38 133.399C1239.91 135.736 1250.01 138.506 1258.55 141.715C1262.63 135.275 1269.82 131 1278 131C1290.7 131 1301 141.297 1301 154C1301 161.552 1297.36 168.254 1291.74 172.447C1292.41 180.234 1289.12 188.57 1282.33 197.302C1274.81 206.982 1262.94 217.214 1247.19 227.832C1234.28 236.536 1218.75 245.511 1200.84 254.663C1218.41 258.131 1234.04 262.012 1247.53 266.29C1265.63 272.033 1279.9 278.5 1289.85 285.663C1299.8 292.824 1305.48 300.731 1306.26 309.358C1307.03 317.986 1302.84 326.778 1294.33 335.595C1285.82 344.415 1272.92 353.319 1256.13 362.192C1222.54 379.941 1173.25 397.623 1111.9 414.257C989.213 447.527 818.224 476.634 628.015 493.698C437.807 510.762 264.368 512.554 137.713 501.652C74.3904 496.202 22.7374 487.577 -13.4755 476.09C-31.5798 470.347 -45.8545 463.88 -55.8026 456.717C-65.7474 449.556 -71.433 441.649 -72.207 433.022C-72.981 424.394 -68.7934 415.602 -60.282 406.785C-51.7678 397.965 -38.872 389.061 -22.079 380.187C-20.7589 379.49 -19.4147 378.793 -18.0464 378.095C11.5929 355.563 54.6059 330.612 108.187 304.595C222.542 249.069 385.125 188.644 568.834 136.475C628.369 119.568 686.472 104.565 742.123 91.57C741.389 88.4997 741 85.2952 741 82C741 59.3563 759.356 41 782 41C801.868 41 818.436 55.1323 822.198 73.893C906.717 56.3523 983.725 44.0472 1049.09 37.3992C1090.82 33.1541 1127.82 31.2145 1159 31.6936V19.5ZM1159 49.5V32.6937C1127.88 32.2146 1090.91 34.1501 1049.19 38.3941C983.86 45.0387 906.879 57.3393 822.383 74.8759C822.788 77.1897 823 79.5702 823 82C823 104.644 804.644 123 782 123C763 123 747.019 110.076 742.367 92.5398C686.728 105.532 628.635 120.532 569.107 137.437C385.437 189.595 222.912 250.001 108.624 305.495C57.673 330.234 16.3267 353.989 -13.0289 375.592C-10.3792 374.297 -7.64733 373.002 -4.8348 371.709C25.6834 353.576 66.6671 334.477 116.067 315.207C234.498 269.009 401.394 221.786 588.688 184.482C720.54 158.221 844.939 140.374 951.375 131.165C954.235 109.069 973.124 92 996 92C1016.82 92 1034.33 106.133 1039.47 125.327C1051.78 124.788 1063.74 124.395 1075.33 124.149C1134.6 122.888 1184.07 125.46 1220.67 131.938C1223.24 130.013 1225.7 128.106 1228.07 126.217C1242.88 114.404 1253.8 103.331 1260.44 93.2068C1267.09 83.0788 1269.41 73.9683 1267.15 66.0309C1264.9 58.0935 1258.14 51.5609 1247.16 46.4362C1236.19 41.3132 1221.08 37.6334 1202.27 35.3667C1200.87 35.1975 1199.44 35.0362 1198 34.8828V49.5C1198 60.2696 1189.27 69 1178.5 69C1167.73 69 1159 60.2696 1159 49.5ZM951.255 132.18C951.086 133.763 951 135.372 951 137C951 161.853 971.147 182 996 182C1020.85 182 1041 161.853 1041 137C1041 133.319 1040.56 129.741 1039.72 126.317C1051.96 125.783 1063.84 125.394 1075.35 125.149C1134.1 123.899 1183.16 126.418 1219.57 132.76C1190.13 154.693 1148.17 178.884 1096.24 204.099C1074.51 214.651 1051.04 225.381 1026 236.198C908.71 230.915 763.089 234.592 606.035 248.682C415.826 265.746 244.837 294.853 122.146 328.123C75.0636 340.891 35.0793 354.275 3.84551 367.833C33.297 351.162 71.3395 333.728 116.431 316.139C234.792 269.967 401.629 222.759 588.883 185.463C720.624 159.224 844.91 141.389 951.255 132.18ZM1255 154C1255 149.846 1256.1 145.949 1258.03 142.586C1249.59 139.43 1239.6 136.694 1228.19 134.379C1225.83 133.901 1223.41 133.441 1220.93 132.999C1191.37 155.136 1149.08 179.557 1096.68 204.998C1075.48 215.292 1052.62 225.755 1028.28 236.302C1052.2 237.406 1074.94 238.886 1096.34 240.728C1135.37 244.087 1169.96 248.653 1199.25 254.351C1217.61 245.015 1233.49 235.865 1246.63 227.003C1262.34 216.412 1274.11 206.249 1281.54 196.688C1288.07 188.287 1291.21 180.4 1290.79 173.122C1287.13 175.571 1282.73 177 1278 177C1265.3 177 1255 166.703 1255 154ZM1023.9 237.105C907.02 231.96 762.229 235.674 606.124 249.678C415.955 266.738 245.027 295.837 122.408 329.088C70.8897 343.059 27.9161 357.757 -4.3693 372.596C-10.3975 376.179 -16.0146 379.723 -21.2049 383.223C-25.6632 386.229 -29.8044 389.2 -33.6194 392.134C-43.2283 400.691 -50.6018 408.805 -55.5751 416.386C-62.2187 426.514 -64.5365 435.625 -62.2824 443.562C-60.0284 451.5 -53.2683 458.032 -42.2932 463.157C-31.3218 468.28 -16.2109 471.96 2.59676 474.226C40.2075 478.759 92.4787 477.627 155.681 471.199C282.077 458.343 452.092 424.315 635.762 372.156C783.53 330.193 917.612 282.892 1023.9 237.105ZM-23.1526 383.336C-22.6931 383.022 -22.2302 382.708 -21.764 382.394C-18.9561 380.501 -16.0242 378.595 -12.9706 376.677C-14.5129 377.433 -16.027 378.189 -17.5126 378.946C-19.4504 380.42 -21.3307 381.883 -23.1526 383.336ZM-22.5022 381.544C-22.947 381.895 -23.3884 382.245 -23.8264 382.594C-27.5466 385.562 -31.0261 388.486 -34.2576 391.363C-43.9167 398.792 -51.5228 405.999 -56.9041 412.924C-64.424 422.6 -67.6475 431.789 -65.9554 440.285C-65.0749 444.706 -62.8928 448.79 -59.501 452.545C-66.6284 446.416 -70.5889 439.867 -71.211 432.932C-71.9483 424.714 -67.9752 416.194 -59.5626 407.48C-51.3024 398.923 -38.8149 390.237 -22.5022 381.544ZM-21.6973 472.278C-18.9608 473.249 -16.1188 474.202 -13.1731 475.137C22.9366 486.591 74.505 495.208 137.799 500.656C264.379 511.551 437.757 509.762 627.926 492.702C818.095 475.642 989.023 446.543 1111.64 413.292C1172.96 396.665 1222.17 379.007 1255.66 361.308C1272.41 352.458 1285.2 343.612 1293.61 334.9C1302.03 326.186 1306 317.666 1305.26 309.448C1304.52 301.229 1299.1 293.553 1289.27 286.475C1279.44 279.399 1265.28 272.971 1247.22 267.243C1233.46 262.877 1217.44 258.922 1199.39 255.399C1173.89 268.346 1143.66 281.641 1109.36 295.019C990.931 341.217 824.034 388.44 636.74 425.743C449.447 463.047 277.194 483.373 150.1 486.077C86.557 487.428 34.2779 484.375 -2.95564 476.826C-9.70049 475.459 -15.9556 473.943 -21.6973 472.278ZM1197.79 255.088C1168.83 249.513 1134.7 245.034 1096.25 241.724C1074.26 239.831 1050.85 238.321 1026.19 237.207C919.55 283.269 784.711 330.897 636.035 373.118C452.327 425.287 282.252 459.331 155.782 472.194C92.551 478.625 40.1953 479.765 2.47711 475.219C-7.81097 473.979 -17.0191 472.315 -25.0673 470.217C-18.3946 472.31 -10.9452 474.186 -2.75694 475.846C34.3706 483.374 86.5647 486.428 150.078 485.077C277.098 482.375 449.291 462.059 636.545 424.763C823.8 387.467 990.636 340.258 1109 294.087C1142.76 280.915 1172.58 267.831 1197.79 255.088ZM-61.0795 448.976C-62.0129 447.337 -62.7366 445.623 -63.2444 443.835C-65.6108 435.502 -63.1328 426.085 -56.4112 415.838C-53.3424 411.159 -49.38 406.294 -44.5672 401.26C-49.1535 405.449 -53.0124 409.546 -56.1145 413.537C-63.5472 423.101 -66.5864 431.997 -64.9747 440.089C-64.3539 443.207 -63.05 446.169 -61.0795 448.976Z"/>
</mask>
<path fill-rule="evenodd" clip-rule="evenodd" d="M1159 19.5C1159 8.73045 1167.73 0 1178.5 0C1189.27 0 1198 8.73045 1198 19.5V33.8772C1199.49 34.0345 1200.95 34.2 1202.39 34.3739C1221.25 36.6465 1236.48 40.3435 1247.59 45.5301C1258.69 50.7149 1265.75 57.4247 1268.11 65.7577C1270.48 74.0907 1268 83.5084 1261.28 93.7553C1254.56 104.006 1243.54 115.155 1228.7 126.999C1226.55 128.711 1224.32 130.437 1222.02 132.179C1224.19 132.571 1226.31 132.978 1228.38 133.399C1239.91 135.736 1250.01 138.506 1258.55 141.715C1262.63 135.275 1269.82 131 1278 131C1290.7 131 1301 141.297 1301 154C1301 161.552 1297.36 168.254 1291.74 172.447C1292.41 180.234 1289.12 188.57 1282.33 197.302C1274.81 206.982 1262.94 217.214 1247.19 227.832C1234.28 236.536 1218.75 245.511 1200.84 254.663C1218.41 258.131 1234.04 262.012 1247.53 266.29C1265.63 272.033 1279.9 278.5 1289.85 285.663C1299.8 292.824 1305.48 300.731 1306.26 309.358C1307.03 317.986 1302.84 326.778 1294.33 335.595C1285.82 344.415 1272.92 353.319 1256.13 362.192C1222.54 379.941 1173.25 397.623 1111.9 414.257C989.213 447.527 818.224 476.634 628.015 493.698C437.807 510.762 264.368 512.554 137.713 501.652C74.3904 496.202 22.7374 487.577 -13.4755 476.09C-31.5798 470.347 -45.8545 463.88 -55.8026 456.717C-65.7474 449.556 -71.433 441.649 -72.207 433.022C-72.981 424.394 -68.7934 415.602 -60.282 406.785C-51.7678 397.965 -38.872 389.061 -22.079 380.187C-20.7589 379.49 -19.4147 378.793 -18.0464 378.095C11.5929 355.563 54.6059 330.612 108.187 304.595C222.542 249.069 385.125 188.644 568.834 136.475C628.369 119.568 686.472 104.565 742.123 91.57C741.389 88.4997 741 85.2952 741 82C741 59.3563 759.356 41 782 41C801.868 41 818.436 55.1323 822.198 73.893C906.717 56.3523 983.725 44.0472 1049.09 37.3992C1090.82 33.1541 1127.82 31.2145 1159 31.6936V19.5ZM1159 49.5V32.6937C1127.88 32.2146 1090.91 34.1501 1049.19 38.3941C983.86 45.0387 906.879 57.3393 822.383 74.8759C822.788 77.1897 823 79.5702 823 82C823 104.644 804.644 123 782 123C763 123 747.019 110.076 742.367 92.5398C686.728 105.532 628.635 120.532 569.107 137.437C385.437 189.595 222.912 250.001 108.624 305.495C57.673 330.234 16.3267 353.989 -13.0289 375.592C-10.3792 374.297 -7.64733 373.002 -4.8348 371.709C25.6834 353.576 66.6671 334.477 116.067 315.207C234.498 269.009 401.394 221.786 588.688 184.482C720.54 158.221 844.939 140.374 951.375 131.165C954.235 109.069 973.124 92 996 92C1016.82 92 1034.33 106.133 1039.47 125.327C1051.78 124.788 1063.74 124.395 1075.33 124.149C1134.6 122.888 1184.07 125.46 1220.67 131.938C1223.24 130.013 1225.7 128.106 1228.07 126.217C1242.88 114.404 1253.8 103.331 1260.44 93.2068C1267.09 83.0788 1269.41 73.9683 1267.15 66.0309C1264.9 58.0935 1258.14 51.5609 1247.16 46.4362C1236.19 41.3132 1221.08 37.6334 1202.27 35.3667C1200.87 35.1975 1199.44 35.0362 1198 34.8828V49.5C1198 60.2696 1189.27 69 1178.5 69C1167.73 69 1159 60.2696 1159 49.5ZM951.255 132.18C951.086 133.763 951 135.372 951 137C951 161.853 971.147 182 996 182C1020.85 182 1041 161.853 1041 137C1041 133.319 1040.56 129.741 1039.72 126.317C1051.96 125.783 1063.84 125.394 1075.35 125.149C1134.1 123.899 1183.16 126.418 1219.57 132.76C1190.13 154.693 1148.17 178.884 1096.24 204.099C1074.51 214.651 1051.04 225.381 1026 236.198C908.71 230.915 763.089 234.592 606.035 248.682C415.826 265.746 244.837 294.853 122.146 328.123C75.0636 340.891 35.0793 354.275 3.84551 367.833C33.297 351.162 71.3395 333.728 116.431 316.139C234.792 269.967 401.629 222.759 588.883 185.463C720.624 159.224 844.91 141.389 951.255 132.18ZM1255 154C1255 149.846 1256.1 145.949 1258.03 142.586C1249.59 139.43 1239.6 136.694 1228.19 134.379C1225.83 133.901 1223.41 133.441 1220.93 132.999C1191.37 155.136 1149.08 179.557 1096.68 204.998C1075.48 215.292 1052.62 225.755 1028.28 236.302C1052.2 237.406 1074.94 238.886 1096.34 240.728C1135.37 244.087 1169.96 248.653 1199.25 254.351C1217.61 245.015 1233.49 235.865 1246.63 227.003C1262.34 216.412 1274.11 206.249 1281.54 196.688C1288.07 188.287 1291.21 180.4 1290.79 173.122C1287.13 175.571 1282.73 177 1278 177C1265.3 177 1255 166.703 1255 154ZM1023.9 237.105C907.02 231.96 762.229 235.674 606.124 249.678C415.955 266.738 245.027 295.837 122.408 329.088C70.8897 343.059 27.9161 357.757 -4.3693 372.596C-10.3975 376.179 -16.0146 379.723 -21.2049 383.223C-25.6632 386.229 -29.8044 389.2 -33.6194 392.134C-43.2283 400.691 -50.6018 408.805 -55.5751 416.386C-62.2187 426.514 -64.5365 435.625 -62.2824 443.562C-60.0284 451.5 -53.2683 458.032 -42.2932 463.157C-31.3218 468.28 -16.2109 471.96 2.59676 474.226C40.2075 478.759 92.4787 477.627 155.681 471.199C282.077 458.343 452.092 424.315 635.762 372.156C783.53 330.193 917.612 282.892 1023.9 237.105ZM-23.1526 383.336C-22.6931 383.022 -22.2302 382.708 -21.764 382.394C-18.9561 380.501 -16.0242 378.595 -12.9706 376.677C-14.5129 377.433 -16.027 378.189 -17.5126 378.946C-19.4504 380.42 -21.3307 381.883 -23.1526 383.336ZM-22.5022 381.544C-22.947 381.895 -23.3884 382.245 -23.8264 382.594C-27.5466 385.562 -31.0261 388.486 -34.2576 391.363C-43.9167 398.792 -51.5228 405.999 -56.9041 412.924C-64.424 422.6 -67.6475 431.789 -65.9554 440.285C-65.0749 444.706 -62.8928 448.79 -59.501 452.545C-66.6284 446.416 -70.5889 439.867 -71.211 432.932C-71.9483 424.714 -67.9752 416.194 -59.5626 407.48C-51.3024 398.923 -38.8149 390.237 -22.5022 381.544ZM-21.6973 472.278C-18.9608 473.249 -16.1188 474.202 -13.1731 475.137C22.9366 486.591 74.505 495.208 137.799 500.656C264.379 511.551 437.757 509.762 627.926 492.702C818.095 475.642 989.023 446.543 1111.64 413.292C1172.96 396.665 1222.17 379.007 1255.66 361.308C1272.41 352.458 1285.2 343.612 1293.61 334.9C1302.03 326.186 1306 317.666 1305.26 309.448C1304.52 301.229 1299.1 293.553 1289.27 286.475C1279.44 279.399 1265.28 272.971 1247.22 267.243C1233.46 262.877 1217.44 258.922 1199.39 255.399C1173.89 268.346 1143.66 281.641 1109.36 295.019C990.931 341.217 824.034 388.44 636.74 425.743C449.447 463.047 277.194 483.373 150.1 486.077C86.557 487.428 34.2779 484.375 -2.95564 476.826C-9.70049 475.459 -15.9556 473.943 -21.6973 472.278ZM1197.79 255.088C1168.83 249.513 1134.7 245.034 1096.25 241.724C1074.26 239.831 1050.85 238.321 1026.19 237.207C919.55 283.269 784.711 330.897 636.035 373.118C452.327 425.287 282.252 459.331 155.782 472.194C92.551 478.625 40.1953 479.765 2.47711 475.219C-7.81097 473.979 -17.0191 472.315 -25.0673 470.217C-18.3946 472.31 -10.9452 474.186 -2.75694 475.846C34.3706 483.374 86.5647 486.428 150.078 485.077C277.098 482.375 449.291 462.059 636.545 424.763C823.8 387.467 990.636 340.258 1109 294.087C1142.76 280.915 1172.58 267.831 1197.79 255.088ZM-61.0795 448.976C-62.0129 447.337 -62.7366 445.623 -63.2444 443.835C-65.6108 435.502 -63.1328 426.085 -56.4112 415.838C-53.3424 411.159 -49.38 406.294 -44.5672 401.26C-49.1535 405.449 -53.0124 409.546 -56.1145 413.537C-63.5472 423.101 -66.5864 431.997 -64.9747 440.089C-64.3539 443.207 -63.05 446.169 -61.0795 448.976Z" stroke="url(#paint0_linear_2_1299)" stroke-opacity="0.5" stroke-width="4" mask="url(#path-1-inside-1_2_1299)"/>
<defs>
<linearGradient id="paint0_linear_2_1299" x1="1216.5" y1="66.5" x2="486.5" y2="270" gradientUnits="userSpaceOnUse">
<stop stop-color="white"/>
<stop offset="0.637706" stop-color="white"/>
<stop offset="0.932442" stop-color="white" stop-opacity="0"/>
</linearGradient>
</defs>
</svg>
